<svg xmlns="http://www.w3.org/2000/svg" width="296" height="61" viewBox="0 .1 296 61"><path fill="#969494" d="M195.3.1L179.4 31l16.7 29.8h25.4l-20-30.8L219.1.1m4.9 0h21.3v60.7H224V.1zm72.3 0h-44V20h11.5v40.8h21V20h11.5"/><path fill="#174295" d="M124.3 60.8V.2h20.4l18 31.7c-.2-1.4-.4-3-.5-4.7-.101-1.7-.101-3.9-.101-6.7V.2H182.2v60.6h-20.6l-17.8-31.5c.2 1.4.4 2.8.5 4.4.1 1.6.2 3.3.2 5.2v21.9h-20.2zm-39.7-22h8.7l-1.8-6.9c-.9-3.5-1.5-6.2-1.8-8-.3-1.9-.5-3.6-.6-5.3h-.3c-.1 1.7-.3 3.4-.6 5.3s-.9 4.6-1.8 8l-1.8 6.9zM57 60.8L77.7.2h23.2l20.2 60.6H98.7l-1.8-7.6H81.1l-1.7 7.6H57zm-34.9 0L0 .2h22.6l6.1 21.9c.9 3.2 1.6 5.9 2 8.1.4 2.2.7 4.3.9 6.2h.4c.3-2.1.6-4.2 1.1-6.5.5-2.3 1.1-4.7 1.9-7.4L41.5 0h22.1L41.5 60.8H22.1z"/></svg>