<?xml version="1.0" standalone="no"?>
<!DOCTYPE svg PUBLIC "-//W3C//DTD SVG 20010904//EN"
 "http://www.w3.org/TR/2001/REC-SVG-20010904/DTD/svg10.dtd">
<svg version="1.0" xmlns="http://www.w3.org/2000/svg"
 width="200.000000pt" height="200.000000pt" viewBox="0 0 200.000000 200.000000"
 preserveAspectRatio="xMidYMid meet">
<metadata>
Created by potrace 1.11, written by Peter Selinger 2001-2013
</metadata>
<g transform="translate(0.000000,200.000000) scale(0.100000,-0.100000)"
fill="#000000" stroke="none">
<path d="M1175 1473 c-83 -19 -203 -72 -352 -154 -32 -17 -87 -47 -123 -67
-75 -41 -110 -69 -110 -90 0 -29 76 -5 191 61 333 188 437 218 594 168 39 -12
168 -70 287 -128 119 -58 222 -103 228 -101 13 4 -220 147 -357 220 -51 27
-118 58 -150 69 -56 20 -166 31 -208 22z"/>
<path d="M507 1044 c-1 -1 -72 -5 -157 -8 -85 -4 -164 -9 -175 -11 -11 -2 -33
-4 -50 -4 -18 -1 -25 -5 -20 -10 15 -14 131 -20 550 -27 367 -6 392 -6 409 11
16 16 16 19 2 34 -14 13 -53 16 -287 16 -149 0 -271 -1 -272 -1z"/>
<path d="M516 856 c-3 -12 -4 -91 -3 -176 l2 -155 38 -3 37 -3 0 70 c0 64 2
70 20 68 14 -1 35 -24 63 -69 41 -67 42 -68 84 -68 l43 0 -52 76 c-50 76 -51
77 -31 93 52 41 58 108 14 152 -31 30 -34 31 -144 34 -61 2 -68 0 -71 -19z
m157 -68 c25 -30 3 -62 -47 -66 l-36 -3 0 45 c0 26 5 46 13 49 20 8 51 -3 70
-25z"/>
<path d="M849 877 c-1 -1 -3 -82 -4 -179 l-1 -178 90 0 c103 0 148 18 167 68
15 37 0 94 -28 107 l-21 11 24 23 c37 35 30 98 -14 127 -18 12 -52 17 -119 20
-51 1 -94 2 -94 1z m159 -72 c6 -2 12 -16 12 -30 0 -28 -22 -41 -68 -40 -22 0
-28 5 -30 28 -5 45 3 55 40 51 18 -2 39 -6 46 -9z m10 -149 c20 -20 8 -62 -20
-70 -13 -3 -35 -6 -50 -6 -26 0 -28 3 -28 43 0 24 2 46 5 49 10 9 79 -2 93
-16z"/>
<path d="M1140 872 c0 -4 25 -85 57 -179 l58 -173 41 0 c48 0 38 -19 113 202
27 81 47 149 43 151 -4 2 -21 4 -38 5 l-31 2 -44 -142 c-24 -78 -46 -133 -48
-122 -3 20 -64 217 -76 245 -6 16 -75 26 -75 11z"/>
</g>
</svg>
