<?xml version="1.0" standalone="no"?>
<!DOCTYPE svg PUBLIC "-//W3C//DTD SVG 20010904//EN"
 "http://www.w3.org/TR/2001/REC-SVG-20010904/DTD/svg10.dtd">
<svg version="1.0" xmlns="http://www.w3.org/2000/svg"
 width="200.000000pt" height="200.000000pt" viewBox="0 0 200.000000 200.000000"
 preserveAspectRatio="xMidYMid meet">
<metadata>
Created by potrace 1.11, written by Peter Selinger 2001-2013
</metadata>
<g transform="translate(0.000000,200.000000) scale(0.100000,-0.100000)"
fill="#000000" stroke="none">
<path d="M695 1404 c-215 -25 -286 -85 -528 -443 -95 -143 -116 -192 -83 -204
30 -12 66 27 173 183 129 191 234 310 303 345 70 35 148 45 410 51 260 6 280
8 280 29 0 8 -1 15 -2 15 -2 0 -95 7 -208 15 -196 14 -279 16 -345 9z"/>
<path d="M1678 1310 c-14 -10 -67 -81 -118 -157 -207 -307 -274 -367 -436
-391 -38 -6 -177 -14 -309 -18 -224 -6 -279 -13 -247 -33 7 -4 115 -14 240
-21 472 -28 535 3 797 387 123 180 138 207 130 233 -8 25 -26 25 -57 0z"/>
<path d="M520 1080 l0 -180 40 0 40 0 0 65 c0 58 2 65 20 65 13 0 33 -21 61
-65 40 -64 41 -65 86 -65 l45 0 -17 28 c-10 15 -33 49 -50 75 l-32 48 28 29
c24 23 29 37 29 75 0 79 -45 105 -181 105 l-69 0 0 -180z m158 98 c21 -21 14
-58 -14 -68 -53 -20 -64 -14 -64 35 0 44 1 45 33 45 18 0 38 -5 45 -12z"/>
<path d="M850 1081 l0 -181 96 0 c52 0 105 5 117 11 61 31 79 120 32 157 -24
19 -24 19 -4 38 15 14 19 28 17 62 -5 69 -34 86 -159 90 l-99 4 0 -181z m171
93 c21 -25 -1 -49 -50 -52 -41 -3 -41 -3 -41 32 0 35 1 36 39 36 23 0 44 -6
52 -16z m3 -140 c19 -18 19 -20 6 -45 -8 -14 -21 -19 -55 -19 l-45 0 0 40 c0
40 0 40 39 40 23 0 46 -7 55 -16z"/>
<path d="M1145 1243 c4 -10 32 -91 62 -181 l56 -163 45 3 45 3 58 165 c32 91
58 171 58 178 1 7 -13 12 -39 12 l-39 0 -42 -131 -43 -131 -33 104 c-18 56
-35 115 -38 131 -6 25 -11 27 -52 27 -39 0 -44 -2 -38 -17z"/>
</g>
</svg>
